<?xml version="1.0" encoding="UTF-8" standalone="no"?><!DOCTYPE svg PUBLIC "-//W3C//DTD SVG 1.1//EN" "http://www.w3.org/Graphics/SVG/1.1/DTD/svg11.dtd"><svg width="100%" height="100%" viewBox="0 0 520 103" version="1.1" xmlns="http://www.w3.org/2000/svg" xmlns:xlink="http://www.w3.org/1999/xlink" xml:space="preserve" xmlns:serif="http://www.serif.com/" style="fill-rule:evenodd;clip-rule:evenodd;stroke-linejoin:round;stroke-miterlimit:1.41421;"><g><path d="M141.717,37.978l0,14.306c0,5.823 -0.457,10.573 -1.368,14.254c-0.912,3.683 -2.613,6.56 -5.102,8.627c-2.49,2.069 -5.945,3.472 -10.362,4.208c-4.418,0.737 -10.136,1.105 -17.147,1.105c-6.313,0 -11.679,-0.368 -16.097,-1.105c-4.417,-0.736 -7.996,-2.209 -10.73,-4.419c-2.735,-2.209 -4.733,-5.364 -5.997,-9.466c-1.262,-4.104 -1.893,-9.486 -1.893,-16.149l0,-18.095c0,-6.59 0.665,-11.904 1.999,-15.938c1.33,-4.031 3.401,-7.152 6.206,-9.362c2.805,-2.209 6.4,-3.698 10.784,-4.471c4.381,-0.771 9.626,-1.157 15.728,-1.157c3.224,0 6.312,0.018 9.256,0.051c2.947,0.037 5.681,0.249 8.207,0.632c2.524,0.387 4.821,1.053 6.89,1.998c2.068,0.948 3.821,2.333 5.26,4.158c1.437,1.823 2.524,4.154 3.261,6.994c0.737,2.841 1.069,6.365 1,10.572l-15.043,0c0,-2.874 -0.369,-5.102 -1.106,-6.679c-0.736,-1.579 -1.858,-2.717 -3.366,-3.42c-1.509,-0.7 -3.455,-1.104 -5.839,-1.209c-2.385,-0.105 -5.225,-0.157 -8.52,-0.157c-4.419,0 -7.909,0.227 -10.469,0.683c-2.56,0.457 -4.506,1.333 -5.837,2.631c-1.334,1.296 -2.194,3.121 -2.579,5.469c-0.386,2.351 -0.614,5.418 -0.683,9.205l0,18.095c0.069,4.139 0.332,7.416 0.789,9.836c0.455,2.419 1.368,4.244 2.735,5.471c1.368,1.228 3.33,2.015 5.892,2.366c2.559,0.352 5.944,0.525 10.152,0.525c3.576,0 6.575,-0.087 8.994,-0.261c2.42,-0.176 4.365,-0.753 5.839,-1.737c1.472,-0.98 2.506,-2.507 3.103,-4.577c0.595,-2.067 0.895,-4.96 0.895,-8.678l0,-2.84l-19.884,0l0,-11.466l35.032,0Z" style="fill:#0c9eda;fill-rule:nonzero;"/><path d="M21.822,52.686l0,-8.46l17.691,0l0,-2.097c0,-2.744 -0.221,-4.878 -0.66,-6.404c-0.44,-1.526 -1.204,-2.653 -2.29,-3.377c-1.088,-0.726 -2.523,-1.152 -4.308,-1.281c-1.785,-0.129 -3.998,-0.194 -6.638,-0.194c-3.104,0 -5.602,0.128 -7.491,0.388c-1.89,0.259 -3.338,0.84 -4.347,1.746c-1.009,0.905 -1.682,2.252 -2.018,4.037c-0.337,1.785 -0.532,4.204 -0.582,7.259l0,13.352c0.05,2.794 0.218,5.058 0.504,6.793c0.284,1.733 0.918,3.079 1.902,4.036c0.982,0.958 2.418,1.604 4.308,1.941c1.888,0.336 4.463,0.504 7.724,0.504c2.432,0 4.528,-0.038 6.288,-0.116c1.759,-0.077 3.195,-0.375 4.309,-0.893c1.112,-0.518 1.94,-1.358 2.483,-2.523c0.544,-1.163 0.816,-2.808 0.816,-4.929l11.1,0c0.052,3.105 -0.193,5.706 -0.737,7.802c-0.543,2.095 -1.346,3.816 -2.406,5.162c-1.062,1.345 -2.356,2.368 -3.881,3.066c-1.528,0.699 -3.222,1.19 -5.085,1.476c-1.864,0.282 -3.882,0.438 -6.056,0.466c-2.173,0.024 -4.451,0.038 -6.831,0.038c-4.502,0 -8.371,-0.285 -11.605,-0.854c-3.235,-0.571 -5.888,-1.67 -7.957,-3.299c-2.071,-1.631 -3.598,-3.934 -4.581,-6.91c-0.983,-2.975 -1.474,-6.896 -1.474,-11.76l0,-13.352c0,-4.918 0.466,-8.889 1.397,-11.916c0.932,-3.028 2.407,-5.356 4.425,-6.986c2.018,-1.631 4.657,-2.718 7.918,-3.261c3.261,-0.544 7.219,-0.816 11.877,-0.816c5.175,0 9.394,0.272 12.653,0.816c3.261,0.543 5.809,1.578 7.647,3.104c1.837,1.527 3.092,3.649 3.765,6.367c0.672,2.716 1.009,6.221 1.009,10.518l0,10.557l-28.869,0Z" style="fill:#0c9eda;fill-rule:nonzero;"/><path d="M198.208,1.263c4.208,0.631 7.714,1.946 10.521,3.944c2.804,1.999 4.891,4.91 6.259,8.732c1.367,3.824 2.05,8.889 2.05,15.201l0,21.25c0,6.311 -0.63,11.433 -1.893,15.359c-1.262,3.929 -3.261,6.979 -5.996,9.153c-2.736,2.175 -6.225,3.647 -10.467,4.419c-4.244,0.77 -9.347,1.157 -15.307,1.157c-6.101,0 -11.274,-0.353 -15.517,-1.053c-4.244,-0.699 -7.679,-2.12 -10.309,-4.26c-2.631,-2.138 -4.542,-5.19 -5.733,-9.152c-1.194,-3.961 -1.788,-9.169 -1.788,-15.623l0,-21.25c0,-6.102 0.559,-11.046 1.682,-14.833c1.12,-3.787 2.981,-6.714 5.575,-8.783c2.594,-2.069 6.031,-3.454 10.31,-4.156c4.277,-0.701 9.538,-1.052 15.78,-1.052c5.681,0 10.625,0.315 14.833,0.947Zm-24.511,12.728c-2.385,0.493 -4.192,1.334 -5.418,2.526c-1.228,1.192 -2.036,2.806 -2.419,4.839c-0.387,2.035 -0.616,4.629 -0.684,7.784l0,21.25c0,3.93 0.244,7.033 0.736,9.311c0.49,2.28 1.384,3.998 2.682,5.155c1.297,1.157 3.139,1.892 5.524,2.208c2.383,0.316 5.47,0.473 9.257,0.473c3.436,0 6.328,-0.173 8.679,-0.525c2.349,-0.351 4.261,-1.121 5.733,-2.314c1.474,-1.192 2.525,-2.927 3.157,-5.208c0.631,-2.278 0.947,-5.312 0.947,-9.1l0,-21.25c0.068,-3.716 -0.23,-6.627 -0.895,-8.732c-0.668,-2.104 -1.735,-3.681 -3.209,-4.734c-1.472,-1.052 -3.402,-1.718 -5.786,-1.998c-2.384,-0.28 -5.259,-0.42 -8.626,-0.42c-4.068,0 -7.295,0.246 -9.678,0.735Z" style="fill:#0c9eda;fill-rule:nonzero;"/><path d="M70.98,72.383c0,4.452 -3.609,8.061 -8.061,8.061c-4.451,0 -8.06,-3.609 -8.06,-8.061c0,-4.452 3.609,-8.06 8.06,-8.06c4.452,0 8.061,3.608 8.061,8.06Z" style="fill:#111517;fill-rule:nonzero;"/><rect x="319.207" y="0.6" width="8.683" height="10.037" style="fill:#111517;fill-rule:nonzero;"/><path d="M296.535,33.47c-5.526,-3.609 -9.361,-4.512 -12.969,-4.512c-8.345,0 -14.21,7.33 -14.21,22.669c0,15.676 6.653,22.614 13.308,22.614c4.51,0 8.006,-3.102 13.871,-8.402l0,-32.369Zm0.565,38.91c-6.204,5.863 -10.038,7.669 -15.338,7.669c-7.895,0 -19.737,-6.317 -19.737,-28.422c0,-21.315 10.262,-29.661 21.202,-29.661c4.398,0 8.008,1.467 13.308,4.963l0,-26.444l7.218,0l0,79.621l-5.526,0l-1.127,-7.726Z" style="fill:#111517;fill-rule:nonzero;"/><rect x="319.883" y="22.928" width="7.33" height="57.178" style="fill:#111517;fill-rule:nonzero;"/><path d="M374.016,29.469c-2.819,-0.564 -5.526,-1.016 -8.685,-1.016c-10.149,0 -18.495,6.317 -18.495,24.924c0,12.519 5.865,20.075 14.209,20.075c3.61,0 7.218,-1.128 12.971,-4.85l0,-39.133Zm-29.097,63.268c4.738,1.692 9.812,3.271 15.564,3.271c10.15,0 13.533,-6.655 13.533,-13.196l0,-7.669c-5.301,3.496 -8.91,4.963 -13.871,4.963c-10.376,0 -20.64,-8.797 -20.64,-26.842c0,-24.585 12.971,-31.465 25.601,-31.465c8.12,0 16.128,2.707 16.128,2.707l0,58.984c0,11.277 -7.444,19.51 -20.638,19.51c-6.769,0 -12.181,-1.241 -16.692,-2.483l1.015,-7.78Z" style="fill:#111517;fill-rule:nonzero;"/><rect x="394.882" y="0.706" width="8.684" height="10.037" style="fill:#111517;fill-rule:nonzero;"/><rect x="395.558" y="23.034" width="7.331" height="57.178" style="fill:#111517;fill-rule:nonzero;"/><path d="M420.368,29.412l-9.022,0l0,-6.654l9.136,0l0,-11.842l7.104,-2.593l0,14.435l11.843,0l0,6.654l-11.843,0l0,35.028c0,5.187 2.482,9.295 7.557,9.295c1.578,0 3.27,-1.063 5.074,-1.852l1.016,7.33c-2.143,0.565 -4.286,0.79 -6.429,0.79c-8.007,0 -14.436,-5.188 -14.436,-14.661l0,-35.93Z" style="fill:#111517;fill-rule:nonzero;"/><path d="M479.015,50.907c0,0 -3.157,-0.225 -8.008,-0.113c-10.375,0.226 -16.803,4.286 -16.803,11.954c0,6.203 4.736,10.377 10.938,10.377c4.512,0 8.572,-1.918 13.873,-7.218l0,-15Zm0.562,21.541c-5.637,5.864 -10.6,7.669 -15.449,7.669c-7.894,0 -17.255,-5.752 -17.255,-17.706c0,-13.76 12.744,-17.819 24.585,-18.157c4.511,-0.113 7.557,0.112 7.557,0.112l0,-4.691c0,-6.654 -2.595,-11.053 -11.73,-11.053c-6.314,0 -11.165,1.58 -16.014,3.158l-1.014,-7.556c4.622,-1.239 9.698,-2.594 17.028,-2.594c11.956,0 19.061,5.753 19.061,16.693l0,41.614l-5.64,0l-1.129,-7.489Z" style="fill:#111517;fill-rule:nonzero;"/><path d="M499.43,0.316l7.218,0l0,64.124c0,5.187 2.48,8.571 7.218,8.571c1.577,0 3.158,-0.451 4.509,-0.902l1.016,7.104c-2.142,0.565 -4.06,0.79 -6.202,0.79c-7.218,0 -13.759,-4.737 -13.759,-14.661l0,-65.026Z" style="fill:#111517;fill-rule:nonzero;"/><path d="M247.624,40.182c0,4.582 -3.714,8.298 -8.298,8.298c-4.582,0 -8.296,-3.716 -8.296,-8.298c0,-4.583 3.714,-8.298 8.296,-8.298c4.584,0 8.298,3.715 8.298,8.298Z" style="fill:#111517;fill-rule:nonzero;"/><path d="M247.624,72.18c0,4.583 -3.714,8.298 -8.298,8.298c-4.582,0 -8.296,-3.715 -8.296,-8.298c0,-4.582 3.714,-8.297 8.296,-8.297c4.584,0 8.298,3.715 8.298,8.297Z" style="fill:#111517;fill-rule:nonzero;"/></g></svg>